<svg xmlns="http://www.w3.org/2000/svg" viewBox="0 0 200 260" fill="none">
  <defs>
    <linearGradient id="shieldGrad" x1="100" y1="0" x2="100" y2="200" gradientUnits="userSpaceOnUse">
      <stop offset="0%" stop-color="#2DD4BF"/>
      <stop offset="50%" stop-color="#0EA5E9"/>
      <stop offset="100%" stop-color="#1E3A8A"/>
    </linearGradient>
    <linearGradient id="shieldGrad2" x1="100" y1="0" x2="100" y2="200" gradientUnits="userSpaceOnUse">
      <stop offset="0%" stop-color="#14B8A6"/>
      <stop offset="100%" stop-color="#1E40AF"/>
    </linearGradient>
  </defs>
  <!-- Shield shape -->
  <path d="M100 10 L185 50 L185 120 C185 165 150 195 100 210 C50 195 15 165 15 120 L15 50 Z" fill="url(#shieldGrad)" opacity="0.9"/>
  <!-- Inner shield highlight -->
  <path d="M100 25 L170 58 L170 118 C170 155 142 180 100 193 C58 180 30 155 30 118 L30 58 Z" fill="url(#shieldGrad2)" opacity="0.3"/>
  <!-- Upward arrow / chevron -->
  <path d="M60 120 L100 75 L140 120" stroke="white" stroke-width="8" fill="none" stroke-linecap="round" stroke-linejoin="round"/>
  <!-- Vertical lines -->
  <line x1="85" y1="95" x2="85" y2="160" stroke="white" stroke-width="4" opacity="0.6" stroke-linecap="round"/>
  <line x1="100" y1="85" x2="100" y2="165" stroke="white" stroke-width="5" opacity="0.8" stroke-linecap="round"/>
  <line x1="115" y1="95" x2="115" y2="160" stroke="white" stroke-width="4" opacity="0.6" stroke-linecap="round"/>
  <!-- Company name -->
  <text x="100" y="237" text-anchor="middle" font-family="Inter, Arial, sans-serif" font-size="18" font-weight="700" letter-spacing="3" fill="#0F2557">GLAZE INSURANCE</text>
  <text x="100" y="255" text-anchor="middle" font-family="Inter, Arial, sans-serif" font-size="11" font-weight="600" letter-spacing="5" fill="#1E40AF">BROKERS</text>
</svg>
